<svg viewBox="0 0 200 200" xmlns="http://www.w3.org/2000/svg">
	<style>
		.label {
			font - family: sans-serif;
		font-weight: bold;
		font-size: 8px;
		text-anchor: middle;
		dominant-baseline: middle;
					}
		.white-key-text {
			fill: #000;
					}
		.black-key-text {
			fill: #fff;
					}
	</style>

	<g transform="translate(100, 100)">
		<path
			d="M 0 -80 A 80 80 0 0 1 40 -69.28 L 25 -43.3 A 50 50 0 0 0 0 -50 Z"
			fill="#fff"
			stroke="#888"
			stroke-width="1"
		/>
		<text x="16.8" y="-62.8" class="label white-key-text">
			C
		</text>

		<path
			d="M 40 -69.28 A 80 80 0 0 1 69.28 -40 L 43.3 -25 A 50 50 0 0 0 25 -43.3 Z"
			fill="#000"
			stroke="#888"
			stroke-width="1"
		/>
		<text x="46.0" y="-46.0" class="label black-key-text">
			C#
		</text>

		<path
			d="M 69.28 -40 A 80 80 0 0 1 80 0 L 50 0 A 50 50 0 0 0 43.3 -25 Z"
			fill="#fff"
			stroke="#888"
			stroke-width="1"
		/>
		<text x="62.8" y="-16.8" class="label white-key-text">
			D
		</text>

		<path
			d="M 80 0 A 80 80 0 0 1 69.28 40 L 43.3 25 A 50 50 0 0 0 50 0 Z"
			fill="#000"
			stroke="#888"
			stroke-width="1"
		/>
		<text x="62.8" y="16.8" class="label black-key-text">
			D#
		</text>

		<path
			d="M 69.28 40 A 80 80 0 0 1 40 69.28 L 25 43.3 A 50 50 0 0 0 43.3 25 Z"
			fill="#fff"
			stroke="#888"
			stroke-width="1"
		/>
		<text x="46.0" y="46.0" class="label white-key-text">
			E
		</text>

		<path
			d="M 40 69.28 A 80 80 0 0 1 0 80 L 0 50 A 50 50 0 0 0 25 43.3 Z"
			fill="#fff"
			stroke="#888"
			stroke-width="1"
		/>
		<text x="16.8" y="62.8" class="label white-key-text">
			F
		</text>

		<path
			d="M 0 80 A 80 80 0 0 1 -40 69.28 L -25 43.3 A 50 50 0 0 0 0 50 Z"
			fill="#000"
			stroke="#888"
			stroke-width="1"
		/>
		<text x="-16.8" y="62.8" class="label black-key-text">
			F#
		</text>

		<path
			d="M -40 69.28 A 80 80 0 0 1 -69.28 40 L -43.3 25 A 50 50 0 0 0 -25 43.3 Z"
			fill="#fff"
			stroke="#888"
			stroke-width="1"
		/>
		<text x="-46.0" y="46.0" class="label white-key-text">
			G
		</text>

		<path
			d="M -69.28 40 A 80 80 0 0 1 -80 0 L -50 0 A 50 50 0 0 0 -43.3 25 Z"
			fill="#000"
			stroke="#888"
			stroke-width="1"
		/>
		<text x="-62.8" y="16.8" class="label black-key-text">
			G#
		</text>

		<path
			d="M -80 0 A 80 80 0 0 1 -69.28 -40 L -43.3 -25 A 50 50 0 0 0 -50 0 Z"
			fill="#fff"
			stroke="#888"
			stroke-width="1"
		/>
		<text x="-62.8" y="-16.8" class="label white-key-text">
			A
		</text>

		<path
			d="M -69.28 -40 A 80 80 0 0 1 -40 -69.28 L -25 -43.3 A 50 50 0 0 0 -43.3 -25 Z"
			fill="#000"
			stroke="#888"
			stroke-width="1"
		/>
		<text x="-46.0" y="-46.0" class="label black-key-text">
			A#
		</text>

		<path
			d="M -40 -69.28 A 80 80 0 0 1 0 -80 L 0 -50 A 50 50 0 0 0 -25 -43.3 Z"
			fill="#fff"
			stroke="#888"
			stroke-width="1"
		/>
		<text x="-16.8" y="-62.8" class="label white-key-text">
			B
		</text>
	</g>
</svg>
